<svg width="36" height="36" viewBox="0 0 36 36" fill="none" xmlns="http://www.w3.org/2000/svg">
<g id="logo">
<path id="Vector" d="M19.1744 20.2669L19.401 19.9078L16.7549 24.1149C15.9704 24.351 15.1725 24.5446 14.365 24.6946C10.844 25.3616 7.98114 25.141 5.77647 24.0328C3.5718 22.9246 2.20332 21.0998 1.67104 18.5584L1.94078 18.5071C4.6246 18.037 7.39637 18.4088 9.83875 19.5666L9.96013 19.6179C10.7945 19.9394 12.0057 19.9488 13.5935 19.6461C15.8989 19.2049 16.905 18.2873 16.6119 16.8935C16.5685 16.6051 16.4433 16.3334 16.25 16.1074C16.0566 15.8815 15.8022 15.7098 15.5141 15.6108C14.9206 15.4056 13.8417 15.3261 12.2772 15.3723L10.2811 15.4441C4.40979 15.6339 1.03985 13.6501 0.171286 9.49257C-0.299859 7.28126 0.200957 5.36069 1.67373 3.73086C3.14651 2.10103 5.50224 0.978274 8.74091 0.362597C12.0084 -0.254789 14.6752 -0.0837679 16.7414 0.875661C18.8076 1.83509 20.1761 3.57438 20.8468 6.09352L19.6276 6.3244C17.3617 6.73198 15.0179 6.42577 12.9515 5.45219H12.93C12.2107 5.13238 11.1982 5.09646 9.89269 5.34445C7.79592 5.73266 6.8815 6.57238 7.14945 7.86359C7.1932 8.15813 7.31838 8.43635 7.51221 8.66982C7.70604 8.90328 7.96157 9.08363 8.25268 9.19242C8.8515 9.41817 9.84145 9.51822 11.2198 9.48487L13.3265 9.42587C16.4932 9.32839 18.8903 9.72259 20.5177 10.6085C20.9003 10.8139 21.2576 11.0591 21.5832 11.3396L24.1215 7.61988L21.3701 16.0239C20.6148 17.4271 19.695 18.779 19.1744 20.2669ZM34.8895 18.1274C35.0816 19.0361 35.0344 19.9759 34.7521 20.8631C34.4697 21.7502 33.9609 22.5571 33.271 23.2119L33.182 23.294C33.1227 23.3504 33.0606 23.4043 32.9986 23.4556C32.8397 23.5865 32.6741 23.7098 32.5023 23.825C32.4348 23.8712 32.3647 23.9173 32.2919 23.961C32.219 24.0046 32.0761 24.0867 31.9655 24.1457L31.8522 24.2047C31.6634 24.297 31.4692 24.3817 31.2668 24.4612L31.1455 24.5048C30.8556 24.6059 30.558 24.6857 30.2553 24.7434L24.9981 25.731L25.4 27.6576C25.7757 29.4444 25.4233 31.3003 24.4141 32.8492C23.4049 34.3982 21.8144 35.5245 19.9648 36L17.699 25.1538L15.3792 28.0963L23.3095 11.0702L35.8794 8.56905C36.0401 9.33649 36.0402 10.1265 35.8797 10.894C35.7193 11.6615 35.4014 12.3914 34.9443 13.042C34.4871 13.6926 33.8996 14.2511 33.2154 14.6858C32.5312 15.1204 31.7637 15.4225 30.9566 15.5749L23.2016 17.1629L23.8409 20.2156L34.8895 18.1274Z" fill="#E5E1FF"/>
<path id="Vector_2" d="M34.8895 18.1274C35.0817 19.0361 35.0345 19.9759 34.7521 20.8631C34.4697 21.7502 33.9609 22.5571 33.271 23.2119L33.182 23.294C33.1227 23.3504 33.0606 23.4043 32.9986 23.4556C32.8397 23.5865 32.6741 23.7098 32.5023 23.825C32.4348 23.8712 32.3647 23.9174 32.2919 23.961C32.219 24.0046 32.0761 24.0867 31.9655 24.1457L31.8522 24.2047C31.6634 24.297 31.4692 24.3817 31.2669 24.4612L31.1455 24.5048C30.8556 24.6059 30.558 24.6857 30.2553 24.7434L24.9981 25.731L25.4 27.6576C25.7757 29.4444 25.4233 31.3003 24.4141 32.8493C23.4049 34.3982 21.8144 35.5245 19.9648 36L17.699 25.1538L15.3792 28.0963L23.3096 11.0702L35.8794 8.56906C36.0401 9.3365 36.0402 10.1265 35.8798 10.894C35.7193 11.6615 35.4014 12.3914 34.9443 13.042C34.4871 13.6926 33.8997 14.2511 33.2154 14.6858C32.5312 15.1204 31.7637 15.4225 30.9567 15.5749L23.2017 17.1629L23.8409 20.2156L34.8895 18.1274Z" fill="#8D57FF"/>
</g>
</svg>
